<mxfile host="app.diagrams.net" agent="Mozilla/5.0 (Windows NT 10.0; Win64; x64) AppleWebKit/537.36 (KHTML, like Gecko) Chrome/122.0.0.0 Safari/537.36" version="26.2.12">
  <diagram id="C5RBs43oDa-KdzZeNtuy" name="Page-1">
    <mxGraphModel dx="1392" dy="749" grid="1" gridSize="10" guides="1" tooltips="1" connect="1" arrows="1" fold="1" page="1" pageScale="1" pageWidth="827" pageHeight="1169" math="0" shadow="0">
      <root>
        <mxCell id="WIyWlLk6GJQsqaUBKTNV-0" />
        <mxCell id="WIyWlLk6GJQsqaUBKTNV-1" parent="WIyWlLk6GJQsqaUBKTNV-0" />
        <mxCell id="x_ATvIhpHw68w2vjda5t-119" value="Purchase Manager Flow (PM)" style="text;html=1;align=center;verticalAlign=middle;whiteSpace=wrap;rounded=0;fontSize=24;fontStyle=1" vertex="1" parent="WIyWlLk6GJQsqaUBKTNV-1">
          <mxGeometry x="56" y="50" width="374" height="30" as="geometry" />
        </mxCell>
        <mxCell id="x_ATvIhpHw68w2vjda5t-120" value="1. List of Item" style="text;html=1;align=center;verticalAlign=middle;whiteSpace=wrap;rounded=0;fontSize=17;fontStyle=1" vertex="1" parent="WIyWlLk6GJQsqaUBKTNV-1">
          <mxGeometry x="44" y="135" width="185" height="30" as="geometry" />
        </mxCell>
        <mxCell id="x_ATvIhpHw68w2vjda5t-121" value="" style="edgeStyle=orthogonalEdgeStyle;rounded=0;orthogonalLoop=1;jettySize=auto;html=1;" edge="1" parent="WIyWlLk6GJQsqaUBKTNV-1" source="x_ATvIhpHw68w2vjda5t-122">
          <mxGeometry relative="1" as="geometry">
            <mxPoint x="140.99999999999977" y="300.0000000000001" as="targetPoint" />
          </mxGeometry>
        </mxCell>
        <mxCell id="x_ATvIhpHw68w2vjda5t-122" value="Start" style="rounded=1;whiteSpace=wrap;html=1;" vertex="1" parent="WIyWlLk6GJQsqaUBKTNV-1">
          <mxGeometry x="81" y="190" width="120" height="50" as="geometry" />
        </mxCell>
        <mxCell id="x_ATvIhpHw68w2vjda5t-126" value="" style="edgeStyle=orthogonalEdgeStyle;rounded=0;orthogonalLoop=1;jettySize=auto;html=1;" edge="1" parent="WIyWlLk6GJQsqaUBKTNV-1" source="x_ATvIhpHw68w2vjda5t-127" target="x_ATvIhpHw68w2vjda5t-141">
          <mxGeometry relative="1" as="geometry">
            <mxPoint x="141.5" y="454" as="targetPoint" />
          </mxGeometry>
        </mxCell>
        <mxCell id="x_ATvIhpHw68w2vjda5t-127" value="Access &quot;View Items&quot; Menu" style="whiteSpace=wrap;html=1;rounded=1;" vertex="1" parent="WIyWlLk6GJQsqaUBKTNV-1">
          <mxGeometry x="81.5" y="299" width="120" height="55" as="geometry" />
        </mxCell>
        <mxCell id="x_ATvIhpHw68w2vjda5t-140" value="" style="edgeStyle=orthogonalEdgeStyle;rounded=0;orthogonalLoop=1;jettySize=auto;html=1;" edge="1" parent="WIyWlLk6GJQsqaUBKTNV-1" source="x_ATvIhpHw68w2vjda5t-141" target="x_ATvIhpHw68w2vjda5t-142">
          <mxGeometry relative="1" as="geometry" />
        </mxCell>
        <mxCell id="x_ATvIhpHw68w2vjda5t-239" value="" style="edgeStyle=orthogonalEdgeStyle;rounded=0;orthogonalLoop=1;jettySize=auto;html=1;" edge="1" parent="WIyWlLk6GJQsqaUBKTNV-1" source="x_ATvIhpHw68w2vjda5t-141" target="x_ATvIhpHw68w2vjda5t-238">
          <mxGeometry relative="1" as="geometry" />
        </mxCell>
        <mxCell id="x_ATvIhpHw68w2vjda5t-141" value="Display data" style="whiteSpace=wrap;html=1;rounded=1;" vertex="1" parent="WIyWlLk6GJQsqaUBKTNV-1">
          <mxGeometry x="81.5" y="413" width="120" height="50" as="geometry" />
        </mxCell>
        <mxCell id="x_ATvIhpHw68w2vjda5t-142" value="End of Display Process" style="whiteSpace=wrap;html=1;rounded=1;" vertex="1" parent="WIyWlLk6GJQsqaUBKTNV-1">
          <mxGeometry x="81" y="549" width="120" height="60" as="geometry" />
        </mxCell>
        <mxCell id="x_ATvIhpHw68w2vjda5t-143" value="2. List of Suppliers" style="text;html=1;align=center;verticalAlign=middle;whiteSpace=wrap;rounded=0;fontSize=17;fontStyle=1" vertex="1" parent="WIyWlLk6GJQsqaUBKTNV-1">
          <mxGeometry x="587" y="134" width="185" height="30" as="geometry" />
        </mxCell>
        <mxCell id="x_ATvIhpHw68w2vjda5t-191" value="4. Generate Purchase Order (PO)" style="text;html=1;align=center;verticalAlign=middle;whiteSpace=wrap;rounded=0;fontSize=17;fontStyle=1" vertex="1" parent="WIyWlLk6GJQsqaUBKTNV-1">
          <mxGeometry x="1644" y="136" width="310" height="30" as="geometry" />
        </mxCell>
        <mxCell id="x_ATvIhpHw68w2vjda5t-192" value="" style="edgeStyle=orthogonalEdgeStyle;rounded=0;orthogonalLoop=1;jettySize=auto;html=1;" edge="1" parent="WIyWlLk6GJQsqaUBKTNV-1" source="x_ATvIhpHw68w2vjda5t-193" target="x_ATvIhpHw68w2vjda5t-195">
          <mxGeometry relative="1" as="geometry" />
        </mxCell>
        <mxCell id="x_ATvIhpHw68w2vjda5t-193" value="Start" style="rounded=1;whiteSpace=wrap;html=1;" vertex="1" parent="WIyWlLk6GJQsqaUBKTNV-1">
          <mxGeometry x="1669" y="189" width="120" height="50" as="geometry" />
        </mxCell>
        <mxCell id="x_ATvIhpHw68w2vjda5t-194" value="" style="edgeStyle=orthogonalEdgeStyle;rounded=0;orthogonalLoop=1;jettySize=auto;html=1;" edge="1" parent="WIyWlLk6GJQsqaUBKTNV-1" source="x_ATvIhpHw68w2vjda5t-195" target="x_ATvIhpHw68w2vjda5t-197">
          <mxGeometry relative="1" as="geometry" />
        </mxCell>
        <mxCell id="x_ATvIhpHw68w2vjda5t-195" value="Access Generate PO&lt;span style=&quot;background-color: transparent;&quot;&gt;&amp;nbsp;m&lt;/span&gt;&lt;span style=&quot;background-color: transparent;&quot;&gt;enu&lt;/span&gt;" style="whiteSpace=wrap;html=1;rounded=1;" vertex="1" parent="WIyWlLk6GJQsqaUBKTNV-1">
          <mxGeometry x="1669" y="277" width="120" height="50" as="geometry" />
        </mxCell>
        <mxCell id="x_ATvIhpHw68w2vjda5t-196" value="" style="edgeStyle=orthogonalEdgeStyle;rounded=0;orthogonalLoop=1;jettySize=auto;html=1;" edge="1" parent="WIyWlLk6GJQsqaUBKTNV-1" source="x_ATvIhpHw68w2vjda5t-197" target="x_ATvIhpHw68w2vjda5t-199">
          <mxGeometry relative="1" as="geometry" />
        </mxCell>
        <mxCell id="x_ATvIhpHw68w2vjda5t-197" value="Check Flagged&amp;nbsp;&lt;div&gt;Items for Reorder&lt;/div&gt;" style="whiteSpace=wrap;html=1;rounded=1;" vertex="1" parent="WIyWlLk6GJQsqaUBKTNV-1">
          <mxGeometry x="1669" y="367" width="120" height="55" as="geometry" />
        </mxCell>
        <mxCell id="x_ATvIhpHw68w2vjda5t-198" value="" style="edgeStyle=orthogonalEdgeStyle;rounded=0;orthogonalLoop=1;jettySize=auto;html=1;" edge="1" parent="WIyWlLk6GJQsqaUBKTNV-1" source="x_ATvIhpHw68w2vjda5t-199" target="x_ATvIhpHw68w2vjda5t-202">
          <mxGeometry relative="1" as="geometry" />
        </mxCell>
        <mxCell id="x_ATvIhpHw68w2vjda5t-199" value="View PRs&amp;nbsp;&lt;div&gt;with Status&lt;br&gt;&lt;/div&gt;" style="whiteSpace=wrap;html=1;rounded=1;" vertex="1" parent="WIyWlLk6GJQsqaUBKTNV-1">
          <mxGeometry x="1669" y="467" width="120" height="60" as="geometry" />
        </mxCell>
        <mxCell id="x_ATvIhpHw68w2vjda5t-278" value="" style="edgeStyle=orthogonalEdgeStyle;rounded=0;orthogonalLoop=1;jettySize=auto;html=1;" edge="1" parent="WIyWlLk6GJQsqaUBKTNV-1" source="x_ATvIhpHw68w2vjda5t-202" target="x_ATvIhpHw68w2vjda5t-277">
          <mxGeometry relative="1" as="geometry" />
        </mxCell>
        <mxCell id="x_ATvIhpHw68w2vjda5t-202" value="Review PR Details" style="whiteSpace=wrap;html=1;rounded=1;" vertex="1" parent="WIyWlLk6GJQsqaUBKTNV-1">
          <mxGeometry x="1669" y="572" width="120" height="50" as="geometry" />
        </mxCell>
        <mxCell id="x_ATvIhpHw68w2vjda5t-226" value="5. List of Purchase Orders" style="text;html=1;align=center;verticalAlign=middle;whiteSpace=wrap;rounded=0;fontSize=17;fontStyle=1" vertex="1" parent="WIyWlLk6GJQsqaUBKTNV-1">
          <mxGeometry x="2210" y="134" width="310" height="30" as="geometry" />
        </mxCell>
        <mxCell id="x_ATvIhpHw68w2vjda5t-227" value="" style="edgeStyle=orthogonalEdgeStyle;rounded=0;orthogonalLoop=1;jettySize=auto;html=1;" edge="1" parent="WIyWlLk6GJQsqaUBKTNV-1" source="x_ATvIhpHw68w2vjda5t-228" target="x_ATvIhpHw68w2vjda5t-230">
          <mxGeometry relative="1" as="geometry" />
        </mxCell>
        <mxCell id="x_ATvIhpHw68w2vjda5t-228" value="Start" style="rounded=1;whiteSpace=wrap;html=1;" vertex="1" parent="WIyWlLk6GJQsqaUBKTNV-1">
          <mxGeometry x="2273" y="186" width="120" height="50" as="geometry" />
        </mxCell>
        <mxCell id="x_ATvIhpHw68w2vjda5t-229" value="" style="edgeStyle=orthogonalEdgeStyle;rounded=0;orthogonalLoop=1;jettySize=auto;html=1;" edge="1" parent="WIyWlLk6GJQsqaUBKTNV-1" source="x_ATvIhpHw68w2vjda5t-230" target="x_ATvIhpHw68w2vjda5t-233">
          <mxGeometry relative="1" as="geometry" />
        </mxCell>
        <mxCell id="x_ATvIhpHw68w2vjda5t-230" value="Access Display PO&lt;span style=&quot;background-color: transparent;&quot;&gt;&amp;nbsp;m&lt;/span&gt;&lt;span style=&quot;background-color: transparent;&quot;&gt;enu&lt;/span&gt;" style="whiteSpace=wrap;html=1;rounded=1;" vertex="1" parent="WIyWlLk6GJQsqaUBKTNV-1">
          <mxGeometry x="2273" y="274" width="120" height="50" as="geometry" />
        </mxCell>
        <mxCell id="x_ATvIhpHw68w2vjda5t-231" value="" style="edgeStyle=orthogonalEdgeStyle;rounded=0;orthogonalLoop=1;jettySize=auto;html=1;" edge="1" parent="WIyWlLk6GJQsqaUBKTNV-1" source="x_ATvIhpHw68w2vjda5t-233" target="x_ATvIhpHw68w2vjda5t-235">
          <mxGeometry relative="1" as="geometry" />
        </mxCell>
        <mxCell id="x_ATvIhpHw68w2vjda5t-232" value="" style="edgeStyle=orthogonalEdgeStyle;rounded=0;orthogonalLoop=1;jettySize=auto;html=1;" edge="1" parent="WIyWlLk6GJQsqaUBKTNV-1" source="x_ATvIhpHw68w2vjda5t-233" target="x_ATvIhpHw68w2vjda5t-237">
          <mxGeometry relative="1" as="geometry" />
        </mxCell>
        <mxCell id="x_ATvIhpHw68w2vjda5t-233" value="View List of POs" style="whiteSpace=wrap;html=1;rounded=1;" vertex="1" parent="WIyWlLk6GJQsqaUBKTNV-1">
          <mxGeometry x="2273" y="364" width="120" height="55" as="geometry" />
        </mxCell>
        <mxCell id="x_ATvIhpHw68w2vjda5t-234" value="" style="edgeStyle=orthogonalEdgeStyle;rounded=0;orthogonalLoop=1;jettySize=auto;html=1;" edge="1" parent="WIyWlLk6GJQsqaUBKTNV-1" source="x_ATvIhpHw68w2vjda5t-235" target="x_ATvIhpHw68w2vjda5t-236">
          <mxGeometry relative="1" as="geometry" />
        </mxCell>
        <mxCell id="x_ATvIhpHw68w2vjda5t-235" value="View PO Details (PO ID, Supplier, Items, Quantity, Status)" style="whiteSpace=wrap;html=1;rounded=1;" vertex="1" parent="WIyWlLk6GJQsqaUBKTNV-1">
          <mxGeometry x="2273" y="464" width="120" height="60" as="geometry" />
        </mxCell>
        <mxCell id="x_ATvIhpHw68w2vjda5t-236" value="End of View PO Process" style="whiteSpace=wrap;html=1;rounded=1;" vertex="1" parent="WIyWlLk6GJQsqaUBKTNV-1">
          <mxGeometry x="2273" y="569" width="120" height="50" as="geometry" />
        </mxCell>
        <mxCell id="x_ATvIhpHw68w2vjda5t-237" value="Status&lt;div&gt;Pending, Approved, Rejected&lt;br&gt;&lt;/div&gt;" style="whiteSpace=wrap;html=1;rounded=1;" vertex="1" parent="WIyWlLk6GJQsqaUBKTNV-1">
          <mxGeometry x="2473" y="361.5" width="142" height="60" as="geometry" />
        </mxCell>
        <mxCell id="x_ATvIhpHw68w2vjda5t-238" value="Item Code, Item Name, Stock, ROL, Flag Status" style="whiteSpace=wrap;html=1;rounded=1;" vertex="1" parent="WIyWlLk6GJQsqaUBKTNV-1">
          <mxGeometry x="303" y="408" width="120" height="60" as="geometry" />
        </mxCell>
        <mxCell id="x_ATvIhpHw68w2vjda5t-240" value="" style="edgeStyle=orthogonalEdgeStyle;rounded=0;orthogonalLoop=1;jettySize=auto;html=1;" edge="1" parent="WIyWlLk6GJQsqaUBKTNV-1" source="x_ATvIhpHw68w2vjda5t-241">
          <mxGeometry relative="1" as="geometry">
            <mxPoint x="659.9999999999998" y="300.0000000000001" as="targetPoint" />
          </mxGeometry>
        </mxCell>
        <mxCell id="x_ATvIhpHw68w2vjda5t-241" value="Start" style="rounded=1;whiteSpace=wrap;html=1;" vertex="1" parent="WIyWlLk6GJQsqaUBKTNV-1">
          <mxGeometry x="600" y="190" width="120" height="50" as="geometry" />
        </mxCell>
        <mxCell id="x_ATvIhpHw68w2vjda5t-242" value="" style="edgeStyle=orthogonalEdgeStyle;rounded=0;orthogonalLoop=1;jettySize=auto;html=1;" edge="1" parent="WIyWlLk6GJQsqaUBKTNV-1" source="x_ATvIhpHw68w2vjda5t-243" target="x_ATvIhpHw68w2vjda5t-246">
          <mxGeometry relative="1" as="geometry">
            <mxPoint x="660.5" y="454" as="targetPoint" />
          </mxGeometry>
        </mxCell>
        <mxCell id="x_ATvIhpHw68w2vjda5t-243" value="Access &quot;View Supplier&quot; Menu" style="whiteSpace=wrap;html=1;rounded=1;" vertex="1" parent="WIyWlLk6GJQsqaUBKTNV-1">
          <mxGeometry x="600.5" y="299" width="120" height="55" as="geometry" />
        </mxCell>
        <mxCell id="x_ATvIhpHw68w2vjda5t-244" value="" style="edgeStyle=orthogonalEdgeStyle;rounded=0;orthogonalLoop=1;jettySize=auto;html=1;" edge="1" parent="WIyWlLk6GJQsqaUBKTNV-1" source="x_ATvIhpHw68w2vjda5t-246" target="x_ATvIhpHw68w2vjda5t-247">
          <mxGeometry relative="1" as="geometry" />
        </mxCell>
        <mxCell id="x_ATvIhpHw68w2vjda5t-245" value="" style="edgeStyle=orthogonalEdgeStyle;rounded=0;orthogonalLoop=1;jettySize=auto;html=1;" edge="1" parent="WIyWlLk6GJQsqaUBKTNV-1" source="x_ATvIhpHw68w2vjda5t-246" target="x_ATvIhpHw68w2vjda5t-248">
          <mxGeometry relative="1" as="geometry" />
        </mxCell>
        <mxCell id="x_ATvIhpHw68w2vjda5t-246" value="Display data" style="whiteSpace=wrap;html=1;rounded=1;" vertex="1" parent="WIyWlLk6GJQsqaUBKTNV-1">
          <mxGeometry x="600.5" y="413" width="120" height="50" as="geometry" />
        </mxCell>
        <mxCell id="x_ATvIhpHw68w2vjda5t-247" value="End of Display Process" style="whiteSpace=wrap;html=1;rounded=1;" vertex="1" parent="WIyWlLk6GJQsqaUBKTNV-1">
          <mxGeometry x="600" y="549" width="120" height="60" as="geometry" />
        </mxCell>
        <mxCell id="x_ATvIhpHw68w2vjda5t-248" value="Supplier Code, Name, Items Supplied" style="whiteSpace=wrap;html=1;rounded=1;" vertex="1" parent="WIyWlLk6GJQsqaUBKTNV-1">
          <mxGeometry x="822" y="408" width="120" height="60" as="geometry" />
        </mxCell>
        <mxCell id="x_ATvIhpHw68w2vjda5t-261" value="3.&amp;nbsp; Display Requisition" style="text;html=1;align=center;verticalAlign=middle;whiteSpace=wrap;rounded=0;fontSize=17;fontStyle=1" vertex="1" parent="WIyWlLk6GJQsqaUBKTNV-1">
          <mxGeometry x="1060" y="137" width="310" height="30" as="geometry" />
        </mxCell>
        <mxCell id="x_ATvIhpHw68w2vjda5t-262" value="" style="edgeStyle=orthogonalEdgeStyle;rounded=0;orthogonalLoop=1;jettySize=auto;html=1;" edge="1" parent="WIyWlLk6GJQsqaUBKTNV-1" source="x_ATvIhpHw68w2vjda5t-263" target="x_ATvIhpHw68w2vjda5t-265">
          <mxGeometry relative="1" as="geometry" />
        </mxCell>
        <mxCell id="x_ATvIhpHw68w2vjda5t-263" value="Start" style="rounded=1;whiteSpace=wrap;html=1;" vertex="1" parent="WIyWlLk6GJQsqaUBKTNV-1">
          <mxGeometry x="1123" y="189" width="120" height="50" as="geometry" />
        </mxCell>
        <mxCell id="x_ATvIhpHw68w2vjda5t-264" value="" style="edgeStyle=orthogonalEdgeStyle;rounded=0;orthogonalLoop=1;jettySize=auto;html=1;" edge="1" parent="WIyWlLk6GJQsqaUBKTNV-1" source="x_ATvIhpHw68w2vjda5t-265" target="x_ATvIhpHw68w2vjda5t-268">
          <mxGeometry relative="1" as="geometry" />
        </mxCell>
        <mxCell id="x_ATvIhpHw68w2vjda5t-265" value="Access Display PR&lt;span style=&quot;background-color: transparent;&quot;&gt;&amp;nbsp;m&lt;/span&gt;&lt;span style=&quot;background-color: transparent;&quot;&gt;enu&lt;/span&gt;" style="whiteSpace=wrap;html=1;rounded=1;" vertex="1" parent="WIyWlLk6GJQsqaUBKTNV-1">
          <mxGeometry x="1123" y="277" width="120" height="50" as="geometry" />
        </mxCell>
        <mxCell id="x_ATvIhpHw68w2vjda5t-266" value="" style="edgeStyle=orthogonalEdgeStyle;rounded=0;orthogonalLoop=1;jettySize=auto;html=1;" edge="1" parent="WIyWlLk6GJQsqaUBKTNV-1" source="x_ATvIhpHw68w2vjda5t-268" target="x_ATvIhpHw68w2vjda5t-270">
          <mxGeometry relative="1" as="geometry" />
        </mxCell>
        <mxCell id="x_ATvIhpHw68w2vjda5t-267" value="" style="edgeStyle=orthogonalEdgeStyle;rounded=0;orthogonalLoop=1;jettySize=auto;html=1;" edge="1" parent="WIyWlLk6GJQsqaUBKTNV-1" source="x_ATvIhpHw68w2vjda5t-268" target="x_ATvIhpHw68w2vjda5t-272">
          <mxGeometry relative="1" as="geometry" />
        </mxCell>
        <mxCell id="x_ATvIhpHw68w2vjda5t-268" value="View List of PRs" style="whiteSpace=wrap;html=1;rounded=1;" vertex="1" parent="WIyWlLk6GJQsqaUBKTNV-1">
          <mxGeometry x="1123" y="367" width="120" height="55" as="geometry" />
        </mxCell>
        <mxCell id="x_ATvIhpHw68w2vjda5t-269" value="" style="edgeStyle=orthogonalEdgeStyle;rounded=0;orthogonalLoop=1;jettySize=auto;html=1;" edge="1" parent="WIyWlLk6GJQsqaUBKTNV-1" source="x_ATvIhpHw68w2vjda5t-270" target="x_ATvIhpHw68w2vjda5t-271">
          <mxGeometry relative="1" as="geometry" />
        </mxCell>
        <mxCell id="x_ATvIhpHw68w2vjda5t-270" value="View PR Details (Item Code, Quantity, Date Needed, Status)" style="whiteSpace=wrap;html=1;rounded=1;" vertex="1" parent="WIyWlLk6GJQsqaUBKTNV-1">
          <mxGeometry x="1123" y="467" width="120" height="60" as="geometry" />
        </mxCell>
        <mxCell id="x_ATvIhpHw68w2vjda5t-271" value="End of View PR Process" style="whiteSpace=wrap;html=1;rounded=1;" vertex="1" parent="WIyWlLk6GJQsqaUBKTNV-1">
          <mxGeometry x="1123" y="572" width="120" height="50" as="geometry" />
        </mxCell>
        <mxCell id="x_ATvIhpHw68w2vjda5t-272" value="Status&lt;div&gt;Pending, Approved, Rejected&lt;br&gt;&lt;/div&gt;" style="whiteSpace=wrap;html=1;rounded=1;" vertex="1" parent="WIyWlLk6GJQsqaUBKTNV-1">
          <mxGeometry x="1323" y="364.5" width="120" height="60" as="geometry" />
        </mxCell>
        <mxCell id="x_ATvIhpHw68w2vjda5t-273" value="" style="edgeStyle=orthogonalEdgeStyle;rounded=0;orthogonalLoop=1;jettySize=auto;html=1;" edge="1" parent="WIyWlLk6GJQsqaUBKTNV-1" target="x_ATvIhpHw68w2vjda5t-274">
          <mxGeometry relative="1" as="geometry">
            <mxPoint x="1789" y="494" as="sourcePoint" />
          </mxGeometry>
        </mxCell>
        <mxCell id="x_ATvIhpHw68w2vjda5t-274" value="For &quot;Pending&quot;&lt;div&gt;Status&lt;/div&gt;" style="whiteSpace=wrap;html=1;rounded=1;" vertex="1" parent="WIyWlLk6GJQsqaUBKTNV-1">
          <mxGeometry x="1869" y="464" width="120" height="60" as="geometry" />
        </mxCell>
        <mxCell id="x_ATvIhpHw68w2vjda5t-275" value="" style="edgeStyle=orthogonalEdgeStyle;rounded=0;orthogonalLoop=1;jettySize=auto;html=1;" edge="1" parent="WIyWlLk6GJQsqaUBKTNV-1" target="x_ATvIhpHw68w2vjda5t-276">
          <mxGeometry relative="1" as="geometry">
            <mxPoint x="1789" y="597" as="sourcePoint" />
          </mxGeometry>
        </mxCell>
        <mxCell id="x_ATvIhpHw68w2vjda5t-276" value="Item, Qty, Date, Suggested Suppliers" style="whiteSpace=wrap;html=1;rounded=1;" vertex="1" parent="WIyWlLk6GJQsqaUBKTNV-1">
          <mxGeometry x="1869" y="567" width="120" height="60" as="geometry" />
        </mxCell>
        <mxCell id="x_ATvIhpHw68w2vjda5t-280" value="" style="edgeStyle=orthogonalEdgeStyle;rounded=0;orthogonalLoop=1;jettySize=auto;html=1;" edge="1" parent="WIyWlLk6GJQsqaUBKTNV-1" source="x_ATvIhpHw68w2vjda5t-277" target="x_ATvIhpHw68w2vjda5t-279">
          <mxGeometry relative="1" as="geometry" />
        </mxCell>
        <mxCell id="x_ATvIhpHw68w2vjda5t-285" value="" style="edgeStyle=orthogonalEdgeStyle;rounded=0;orthogonalLoop=1;jettySize=auto;html=1;" edge="1" parent="WIyWlLk6GJQsqaUBKTNV-1" source="x_ATvIhpHw68w2vjda5t-277" target="x_ATvIhpHw68w2vjda5t-284">
          <mxGeometry relative="1" as="geometry" />
        </mxCell>
        <mxCell id="x_ATvIhpHw68w2vjda5t-277" value="Approve&amp;nbsp;&lt;div&gt;or Reject PR?&lt;/div&gt;" style="rhombus;whiteSpace=wrap;html=1;rounded=1;" vertex="1" parent="WIyWlLk6GJQsqaUBKTNV-1">
          <mxGeometry x="1668" y="676" width="121" height="113" as="geometry" />
        </mxCell>
        <mxCell id="x_ATvIhpHw68w2vjda5t-282" value="" style="edgeStyle=orthogonalEdgeStyle;rounded=0;orthogonalLoop=1;jettySize=auto;html=1;" edge="1" parent="WIyWlLk6GJQsqaUBKTNV-1" source="x_ATvIhpHw68w2vjda5t-279" target="x_ATvIhpHw68w2vjda5t-281">
          <mxGeometry relative="1" as="geometry" />
        </mxCell>
        <mxCell id="x_ATvIhpHw68w2vjda5t-279" value="Update PR Status" style="whiteSpace=wrap;html=1;rounded=1;" vertex="1" parent="WIyWlLk6GJQsqaUBKTNV-1">
          <mxGeometry x="1972.5" y="702.5" width="120" height="60" as="geometry" />
        </mxCell>
        <mxCell id="x_ATvIhpHw68w2vjda5t-299" style="edgeStyle=orthogonalEdgeStyle;rounded=0;orthogonalLoop=1;jettySize=auto;html=1;entryX=1;entryY=0.5;entryDx=0;entryDy=0;" edge="1" parent="WIyWlLk6GJQsqaUBKTNV-1" source="x_ATvIhpHw68w2vjda5t-281" target="x_ATvIhpHw68w2vjda5t-297">
          <mxGeometry relative="1" as="geometry">
            <Array as="points">
              <mxPoint x="2033" y="1390" />
            </Array>
          </mxGeometry>
        </mxCell>
        <mxCell id="x_ATvIhpHw68w2vjda5t-281" value="Status = Rejected&lt;div&gt;Save&lt;/div&gt;" style="whiteSpace=wrap;html=1;rounded=1;" vertex="1" parent="WIyWlLk6GJQsqaUBKTNV-1">
          <mxGeometry x="1972.5" y="842.5" width="120" height="60" as="geometry" />
        </mxCell>
        <mxCell id="x_ATvIhpHw68w2vjda5t-283" value="Reject" style="text;html=1;align=center;verticalAlign=middle;resizable=0;points=[];autosize=1;strokeColor=none;fillColor=none;" vertex="1" parent="WIyWlLk6GJQsqaUBKTNV-1">
          <mxGeometry x="1844" y="702.5" width="60" height="30" as="geometry" />
        </mxCell>
        <mxCell id="x_ATvIhpHw68w2vjda5t-288" value="" style="edgeStyle=orthogonalEdgeStyle;rounded=0;orthogonalLoop=1;jettySize=auto;html=1;" edge="1" parent="WIyWlLk6GJQsqaUBKTNV-1" source="x_ATvIhpHw68w2vjda5t-284" target="x_ATvIhpHw68w2vjda5t-287">
          <mxGeometry relative="1" as="geometry" />
        </mxCell>
        <mxCell id="x_ATvIhpHw68w2vjda5t-284" value="Select &quot;Suggested&quot; Supplier for Item" style="whiteSpace=wrap;html=1;rounded=1;" vertex="1" parent="WIyWlLk6GJQsqaUBKTNV-1">
          <mxGeometry x="1669" y="860" width="120" height="60" as="geometry" />
        </mxCell>
        <mxCell id="x_ATvIhpHw68w2vjda5t-286" value="Approve" style="text;html=1;align=center;verticalAlign=middle;resizable=0;points=[];autosize=1;strokeColor=none;fillColor=none;" vertex="1" parent="WIyWlLk6GJQsqaUBKTNV-1">
          <mxGeometry x="1661" y="807" width="70" height="30" as="geometry" />
        </mxCell>
        <mxCell id="x_ATvIhpHw68w2vjda5t-290" value="" style="edgeStyle=orthogonalEdgeStyle;rounded=0;orthogonalLoop=1;jettySize=auto;html=1;" edge="1" parent="WIyWlLk6GJQsqaUBKTNV-1" source="x_ATvIhpHw68w2vjda5t-287" target="x_ATvIhpHw68w2vjda5t-289">
          <mxGeometry relative="1" as="geometry" />
        </mxCell>
        <mxCell id="x_ATvIhpHw68w2vjda5t-292" value="" style="edgeStyle=orthogonalEdgeStyle;rounded=0;orthogonalLoop=1;jettySize=auto;html=1;" edge="1" parent="WIyWlLk6GJQsqaUBKTNV-1" source="x_ATvIhpHw68w2vjda5t-287" target="x_ATvIhpHw68w2vjda5t-291">
          <mxGeometry relative="1" as="geometry" />
        </mxCell>
        <mxCell id="x_ATvIhpHw68w2vjda5t-287" value="Generates Unique PO ID" style="whiteSpace=wrap;html=1;rounded=1;" vertex="1" parent="WIyWlLk6GJQsqaUBKTNV-1">
          <mxGeometry x="1669" y="990" width="120" height="60" as="geometry" />
        </mxCell>
        <mxCell id="x_ATvIhpHw68w2vjda5t-289" value="PR Reference, Supplier, Item, Qty" style="whiteSpace=wrap;html=1;rounded=1;" vertex="1" parent="WIyWlLk6GJQsqaUBKTNV-1">
          <mxGeometry x="1871" y="990" width="120" height="60" as="geometry" />
        </mxCell>
        <mxCell id="x_ATvIhpHw68w2vjda5t-296" value="" style="edgeStyle=orthogonalEdgeStyle;rounded=0;orthogonalLoop=1;jettySize=auto;html=1;" edge="1" parent="WIyWlLk6GJQsqaUBKTNV-1" source="x_ATvIhpHw68w2vjda5t-291" target="x_ATvIhpHw68w2vjda5t-295">
          <mxGeometry relative="1" as="geometry" />
        </mxCell>
        <mxCell id="x_ATvIhpHw68w2vjda5t-291" value="PO Saved to File" style="whiteSpace=wrap;html=1;rounded=1;" vertex="1" parent="WIyWlLk6GJQsqaUBKTNV-1">
          <mxGeometry x="1669" y="1130" width="120" height="60" as="geometry" />
        </mxCell>
        <mxCell id="x_ATvIhpHw68w2vjda5t-298" value="" style="edgeStyle=orthogonalEdgeStyle;rounded=0;orthogonalLoop=1;jettySize=auto;html=1;" edge="1" parent="WIyWlLk6GJQsqaUBKTNV-1" source="x_ATvIhpHw68w2vjda5t-295" target="x_ATvIhpHw68w2vjda5t-297">
          <mxGeometry relative="1" as="geometry" />
        </mxCell>
        <mxCell id="x_ATvIhpHw68w2vjda5t-295" value="PR Status Updated to Approved" style="whiteSpace=wrap;html=1;rounded=1;" vertex="1" parent="WIyWlLk6GJQsqaUBKTNV-1">
          <mxGeometry x="1659" y="1249" width="141" height="60" as="geometry" />
        </mxCell>
        <mxCell id="x_ATvIhpHw68w2vjda5t-297" value="End of PO Generation" style="whiteSpace=wrap;html=1;rounded=1;" vertex="1" parent="WIyWlLk6GJQsqaUBKTNV-1">
          <mxGeometry x="1658" y="1360" width="141" height="60" as="geometry" />
        </mxCell>
      </root>
    </mxGraphModel>
  </diagram>
</mxfile>
